<svg id="Layer_2" xmlns="http://www.w3.org/2000/svg" xmlns:xlink="http://www.w3.org/1999/xlink" width="0" height="0" viewBox="0 0 1975.53 204.49">
    <defs>
        <clipPath id="ntLogo" clipPathUnits="objectBoundingBox">
            <path class="cls-1"
                  d="m226.67,198.23h-44.86S45.42,62.49,45.42,62.49l3.49,135.74H0s0-191.97,0-191.97h45.99s135.25,131.19,135.25,131.19l-3.49-131.19h48.92s0,191.97,0,191.97Z"/>
            <path class="cls-1"
                  d="m374.28,204.49c-67.4,0-123.43-37.26-123.43-102.39C250.85,37.26,306.88,0,374.28,0c67.4,0,123.43,37.26,123.43,102.1,0,65.13-56.03,102.39-123.43,102.39Zm0-172.27c-48.06,0-71.31,32.34-71.31,69.88,0,37.54,23.24,69.88,71.31,69.88,48.06,0,71.31-32.34,71.31-69.88,0-37.54-23.24-69.88-71.31-69.88Z"/>
            <path class="cls-1"
                  d="m698.54,42.22h-79.67s1.75,156.02,1.75,156.02h-46.36s1.75-156.02,1.75-156.02h-79.67s0-35.96,0-35.96h202.21s0,35.96,0,35.96Z"/>
            <path class="cls-1"
                  d="m823.78,204.49c-67.4,0-123.43-37.26-123.43-102.39C700.35,37.26,756.38,0,823.78,0c67.4,0,123.43,37.26,123.43,102.1,0,65.13-56.03,102.39-123.43,102.39Zm0-172.27c-48.06,0-71.31,32.34-71.31,69.88,0,37.54,23.24,69.88,71.31,69.88,48.06,0,71.31-32.34,71.31-69.88,0-37.54-23.24-69.88-71.31-69.88Z"/>
            <path class="cls-1"
                  d="m1184.15,198.23h-52.35s-62.51-73.38-62.51-73.38h-51.64s0,73.38,0,73.38h-46.36s0-191.97,0-191.97h0C1065.37,0,1171.15-7.21,1171.15,65.86c0,35.07-31.9,50.23-50.79,56.13l63.8,76.25Zm-166.5-162.57s0,40.54,0,58.41c51.53,0,112.19,2.61,112.25-29.23.08-42.68-112.26-29.18-112.25-29.18Z"/>
            <path class="cls-1" d="m1260.54,198.23h-46.64s0-191.97,0-191.97h46.64s0,191.97,0,191.97Z"/>
            <path class="cls-1"
                  d="m1411.28,204.49c-67.4,0-123.43-37.26-123.43-102.39,0-64.85,56.03-102.1,123.43-102.1,67.41,0,123.43,37.26,123.43,102.1,0,65.13-56.03,102.39-123.43,102.39Zm0-172.27c-48.06,0-71.31,32.34-71.31,69.88,0,37.54,23.24,69.88,71.31,69.88s71.31-32.34,71.31-69.88c0-37.54-23.24-69.88-71.31-69.88Z"/>
            <path class="cls-1"
                  d="m1672.4,198.23h-49.49S1525.36,6.26,1525.36,6.26h59.6s70.09,148.5,70.09,148.5L1724.85,6.26h46.52s-98.97,191.97-98.97,191.97Z"/>
            <path class="cls-1"
                  d="m1933.3,65c-11.34-15.03-30.39-32.78-68.87-32.78-25.1,0-55.43,10.19-54.82,26.76.66,17.97,40.8,20.68,68.34,23.43,57.86,5.78,97.59,25.34,97.59,56.69,0,33.66-45.06,65.39-111.79,65.39-48.11,0-90.3-20.83-106.39-46.19l39.43-27.96c16.5,27,44.26,38.34,70.45,38.34,31.53,0,58.51-9.35,58.51-29.04,0-14.38-29.26-17.68-38.85-19.35-23.5-4.08-47.5-4.78-71.1-8.46-24.33-3.79-50.74-21.86-50.74-52C1765.06,33.72,1791.65,0,1865.32,0c44.38,0,83.14,21.11,98.33,39.35l-30.35,25.65Z"/>
        </clipPath>
    </defs>
</svg>